<?xml version="1.0"?>
<svg xmlns="http://www.w3.org/2000/svg" id="Capa_1" enable-background="new 0 0 511.995 511.995" height="512px" viewBox="0 0 511.995 511.995" width="512px"><g><path d="m199.716 491.995h-7.451c-4.191-7.354-12.858-19.654-27.832-29.021v-24.342c0-1.553.842-2.99 2.197-3.75l2.207-1.239c7.99-4.484 12.738-12.958 12.391-22.113s-5.724-17.245-14.032-21.11l-5.39-2.507c-3.248-1.511-3.29-6.192-.071-7.763l3.062-1.496c8.621-4.211 13.845-12.786 13.63-22.378-.215-9.593-5.815-17.926-14.617-21.748-3.379-1.467-3.428-6.323-.077-7.855 5.022-2.297 7.231-8.231 4.935-13.253-2.298-5.023-8.233-7.232-13.253-4.935-8.849 4.046-14.286 12.604-14.192 22.333.095 9.729 5.698 18.181 14.623 22.055 2.369 1.028 3.343 4.01 1.973 6.229-.983 1.593-3.25 2.288-4.86 3.075-8.5 4.151-13.726 12.605-13.637 22.063s5.472 17.813 14.049 21.804l5.39 2.507c2.057.957 3.023 3.379 2.206 5.498-.686 1.779-2.574 2.521-4.124 3.391-7.653 4.295-12.408 12.415-12.408 21.191v15.344c-7.971-2.376-17.043-3.816-27.342-3.816-46.091 0-67.719 28.753-75.175 41.836h-7.451c-5.522 0-10 4.477-10 10s4.478 10 10 10h13.597 138.058 13.597c5.522 0 10-4.477 10-10s-4.48-10-10.003-10zm-133.343 0c8.761-10.011 24.631-21.836 50.718-21.836 13.401 0 24.089 3.095 32.506 7.457.07.039.141.074.212.111 7.932 4.149 13.834 9.418 18.06 14.269h-101.496z" data-original="#000000" class="active-path" fill="#000000"/><path d="m89.364 357.537 3.462 2.509c1.929 1.398 3.081 3.655 3.081 6.038v8.402c0 5.523 4.478 10 10 10s10-4.477 10-10v-8.402c0-8.774-4.241-17.085-11.345-22.232l-3.461-2.509c-4.226-3.061-4.008-9.582.413-12.354l8.141-5.105c8.137-5.103 12.947-13.883 12.868-23.487s-5.033-18.304-13.253-23.272l-3.313-2.002c-4.909-2.967-4.685-10.32.394-12.985 8.771-4.601 14.258-13.256 14.677-23.152.42-9.896-4.314-18.983-12.664-24.309l-3.889-2.481c-4.715-3.008-4.482-10.125.418-12.82l1.207-.664c8.793-4.836 14.109-13.714 14.223-23.749s-5.002-19.03-13.685-24.063c-2.835-1.643-4.911-3.952-4.744-7.414.173-3.581 2.606-5.462 5.478-7.095 8.57-4.875 13.76-13.671 13.88-23.531s-4.853-18.78-13.301-23.862c-2.663-1.603-5.227-3.124-5.801-6.465-.542-3.158.963-6.336 3.798-7.868 4.858-2.626 6.667-8.694 4.041-13.553-2.627-4.858-8.694-6.669-13.553-4.041-8.782 4.748-14.162 13.542-14.392 23.522s4.741 19.012 13.296 24.157c2.991 1.8 5.779 3.655 5.908 7.521.052 1.568-.383 3.168-1.269 4.466-1.05 1.538-2.642 2.351-4.213 3.244-8.651 4.921-13.841 13.801-13.882 23.754s5.075 18.875 13.687 23.867c2.777 1.61 4.825 3.822 4.751 7.215-.075 3.425-2.25 5.483-5.069 7.035-8.579 4.719-13.892 13.379-14.21 23.166s4.42 18.773 12.674 24.039l3.89 2.481c4.771 3.044 4.459 10.263-.547 12.889-8.895 4.666-14.386 13.445-14.689 23.484s4.646 19.134 13.243 24.329l3.312 2.001c4.69 2.835 4.754 9.784.105 12.699l-8.141 5.105c-7.743 4.855-12.548 13.208-12.854 22.342-.307 9.133 3.928 17.788 11.328 23.15z" data-original="#000000" class="active-path" fill="#000000"/><path d="m481.032 321.181c-3.99-2.829-9.104-3.59-13.735-2.064l-22.693 6.789c-8.54-5.058-28.925-15.311-53.902-15.311-43.506 0-62.039 25.177-65.267 30.137-2.391 3.638-2.411 8.001-.024 11.655 3.159 4.87 21.676 30.175 65.291 30.175 24.665 0 44.852-9.998 53.576-15.12l22.072 8.079c9.969 4.027 21.18-3.574 21.18-14.291v-27.477c0-4.988-2.429-9.687-6.498-12.572zm-115.42 37.266c-9.348-3.388-15.521-8.209-19.181-11.856 3.667-3.64 9.877-8.497 19.231-11.893 1.473 5.996 2.376 14.398-.05 23.749zm19.622 3.94c2.968-12.316 1.911-23.42.015-31.618 1.757-.11 3.568-.174 5.452-.174 18.979 0 35.091 7.646 42.405 11.775v8.441c-7.272 4.134-23.271 11.751-42.405 11.751-1.888 0-3.705-.065-5.467-.175zm82.296-7.732-14.423-5.278v-5.138l14.423-4.315z" data-original="#000000" class="active-path" fill="#000000"/><path d="m114.567 409.364c-2.982-4.561-9.355-5.766-13.859-2.77-4.533 3.016-5.794 9.344-2.771 13.87 3.03 4.534 9.337 5.775 13.87 2.76 4.535-3.015 5.778-9.336 2.76-13.86z" data-original="#000000" class="active-path" fill="#000000"/><path d="m155.917 80.505c2.064 5.039 8.039 7.499 13.06 5.41 5.03-2.093 7.496-8.02 5.41-13.06-2.08-5.026-8.041-7.483-13.06-5.4-5.024 2.086-7.507 8.014-5.41 13.05z" data-original="#000000" class="active-path" fill="#000000"/><path d="m213.937 36.265c7.696 5.128 17.86-2.545 15.084-11.326-1.272-4.024-5.06-6.878-9.283-6.983-4.247-.106-8.186 2.585-9.641 6.571-1.574 4.312.079 9.16 3.84 11.738z" data-original="#000000" class="active-path" fill="#000000"/><path d="m438.847 18.305c7.519 5.01 17.654-2.252 15.183-10.975-1.163-4.104-4.865-7.106-9.141-7.318-4.265-.211-8.271 2.411-9.81 6.383-1.661 4.286-.097 9.377 3.768 11.91z" data-original="#000000" class="active-path" fill="#000000"/><path d="m220.957 148.992c16.448 0 29.829-13.381 29.829-29.829s-13.381-29.829-29.829-29.829-29.829 13.381-29.829 29.829 13.381 29.829 29.829 29.829zm0-39.658c5.42 0 9.829 4.409 9.829 9.829 0 5.419-4.409 9.829-9.829 9.829s-9.829-4.409-9.829-9.829 4.409-9.829 9.829-9.829z" data-original="#000000" class="active-path" fill="#000000"/><path d="m393.337 93.371c16.448 0 29.829-13.381 29.829-29.829s-13.381-29.829-29.829-29.829c-16.447 0-29.828 13.381-29.828 29.829s13.381 29.829 29.828 29.829zm0-39.657c5.42 0 9.829 4.409 9.829 9.829s-4.409 9.829-9.829 9.829c-5.419 0-9.828-4.409-9.828-9.829s4.409-9.829 9.828-9.829z" data-original="#000000" class="active-path" fill="#000000"/><path d="m281.306 305.806c4.777 2.633 10.957.837 13.584-3.934 2.665-4.837.903-10.919-3.934-13.584-3.248-1.79-5.477-4.423-7.013-7.172 4.631.424 9.48.658 14.567.658 38.744 0 68.198-16.408 79.491-23.79l30.444 13.092c11.97 5.144 25.681-3.933 25.681-16.912v-42.702c0-12.462-12.723-21.502-24.501-17.372l-31.247 10.959c-8.654-5.706-28.87-17.291-56.176-21.986v-29.466c0-6.426-6.264-11.29-12.497-9.683-32.271 8.323-43.404 29.989-47.099 41.36-41.984 10.616-59.439 37.632-61.379 40.835-1.973 3.25-1.964 7.311-.006 10.559 1.894 3.13 19.057 29.756 60.309 40.569 1.712 8.409 6.482 21.246 19.776 28.569zm-17.022-100.248c3.628 12.509 6.185 30.96-.098 51.638-23.095-6.65-36.197-18.903-42.064-25.801 5.872-6.897 19.016-19.193 42.162-25.837zm122.563 17.716 27.278-9.567v38.042l-27.278-11.73zm-20.001 18.084c-9.419 6.068-35.198 20.417-68.336 20.417-5.162 0-10.019-.279-14.609-.767 6.661-23.49 4.112-44.458.088-59.229 9.023-.957 18.14-1.031 27.165-.071 26.985 2.935 47.523 14.457 55.691 19.719v19.931zm-64.644-73.358v13.068c-5.207-.144-10.43-.002-15.625.383 3.211-4.586 8.129-9.537 15.625-13.451z" data-original="#000000" class="active-path" fill="#000000"/><path d="m240.917 234.285c2.094 5.023 8.024 7.499 13.06 5.41 5.03-2.087 7.5-8.026 5.41-13.06-2.088-5.03-8.022-7.499-13.06-5.41-5.024 2.083-7.506 8.029-5.41 13.06z" data-original="#000000" class="active-path" fill="#000000"/><path d="m466.217 436.25c-8.735-10.25-23.461-13.029-35.666-7.339l-5.785 2.697c-1.293.603-2.712.928-4.137.871-3.385-.134-4.878-1.939-6.466-3.858-4.792-5.79-11.557-9.317-19.047-9.932-7.491-.618-14.738 1.761-20.411 6.69-2.906 2.525-7.153 2.525-10.059-.001-5.673-4.929-12.932-7.309-20.41-6.69-7.49.615-14.255 4.142-19.047 9.932-2.961 3.326-7.753 4.315-11.788 2.434l-5.2-2.424c-12.712-5.926-27.997-2.045-36.345 9.227-8.451 11.414-7.6 27.278 2.023 37.722l15.123 16.414h-9.931c-5.326 0-9.977 4.019-10.321 9.335-.377 5.824 4.236 10.665 9.978 10.665h180.825c5.326 0 9.977-4.019 10.321-9.335.377-5.824-4.236-10.665-9.978-10.665h-9.548l15.122-16.413c10.087-10.943 10.539-27.84.747-39.33zm-15.453 25.78-27.609 29.965h-106.956l-27.61-29.966c-3.13-3.397-3.406-8.556-.657-12.269 2.714-3.666 7.684-4.929 11.821-3.001l11.999 5.594c2.325 1.084 4.772 1.678 7.22 1.844l6.504 15.062c2.16 5.002 8.137 7.378 13.146 5.216 5.07-2.189 7.405-8.075 5.216-13.145l-6.774-15.687 3.533-4.268c2.709-3.271 7.723-3.686 10.933-.897 2.82 2.45 6.036 4.208 9.424 5.323v19.494c0 5.523 4.478 10 10 10s10-4.477 10-10v-20.471c2.447-1.084 4.771-2.52 6.872-4.346 2.085-1.811 5.053-2.362 7.651-1.421 1.847.668 3.033 2.018 4.242 3.479.99 1.195 2.065 2.288 3.209 3.278l-6.796 15.737c-2.189 5.07.146 10.956 5.216 13.145 5.009 2.162 10.985-.215 13.146-5.216l7.314-16.937c3.692-.102 7.404-.938 10.912-2.573l6.884-3.209c4.134-1.926 9.106-.666 11.821 3.001 2.746 3.711 2.47 8.87-.661 12.268z" data-original="#000000" class="active-path" fill="#000000"/></g> </svg>
